<?xml version="1.0" encoding="utf-8"?>
<!-- Generator: Adobe Illustrator 19.0.0, SVG Export Plug-In . SVG Version: 6.00 Build 0)  -->
<svg version="1.1" id="Layer_1" xmlns="http://www.w3.org/2000/svg" xmlns:xlink="http://www.w3.org/1999/xlink" x="0px" y="0px"
	 width="312.6px" height="150.9px" viewBox="0 0 312.6 150.9" style="enable-background:new 0 0 312.6 150.9;" xml:space="preserve"
	>
<style type="text/css">
	.st0{fill:#FFFFFF;}
</style>
<g id="Assets">
	<g id="Artboard-2" transform="translate(-176.000000, -108.000000)">
		<path id="Combined-Shape" class="st0" d="M295.8,128.9c12.9-12.9,30.7-20.9,50.4-20.9c39.4,0,71.4,32,71.4,71.4
			c0,39.4-32,71.4-71.4,71.4c-18.6,0-35.5-7.1-48.2-18.7c-27.2-1.5-48.8-24.1-48.8-51.7C249.2,153.6,269.6,131.5,295.8,128.9z
			 M295.8,128.9c-13,12.9-21,30.8-21,50.6c0,20.9,9,39.6,23.2,52.7c1,0.1,2,0.1,3,0.1c28.6,0,51.8-23.2,51.8-51.8
			c0-28.6-23.2-51.8-51.8-51.8C299.2,128.6,297.5,128.7,295.8,128.9z"/>
	</g>
</g>
<g id="XMLID_22_">
	<path id="XMLID_23_" class="st0" d="M298.1,97.5h9v3.1h-9V118h-3.6v-17.4H248v-3.1l45.1-68.3h4.9V97.5z M252.2,97.5h42.2v-64h-0.2
		L252.2,97.5z"/>
</g>
<g id="XMLID_18_">
	<path id="XMLID_19_" class="st0" d="M52.1,97.5h9v3.1h-9V118h-3.6v-17.4H2v-3.1l45.1-68.3h4.9V97.5z M6.2,97.5h42.2v-64h-0.2
		L6.2,97.5z"/>
</g>
</svg>
