<?xml version="1.0" encoding="UTF-8"?>
<svg width="69px" height="64px" viewBox="0 0 69 64" version="1.1" xmlns="http://www.w3.org/2000/svg" xmlns:xlink="http://www.w3.org/1999/xlink">
    <!-- Generator: Sketch 42 (36781) - http://www.bohemiancoding.com/sketch -->
    <title>addImg</title>
    <desc>Created with Sketch.</desc>
    <defs></defs>
    <g id="•-SignUp/Login" stroke="none" stroke-width="1" fill="none" fill-rule="evenodd">
        <g id="CS_profile_1.1" transform="translate(-433.000000, -106.000000)" fill="#0D47A1">
            <g id="addImg" transform="translate(428.000000, 100.000000)">
                <g id="ic_camera_alt" transform="translate(0.000000, 16.000000)">
                    <circle id="Oval" cx="32" cy="32" r="8.53333333"></circle>
                    <path d="M24,5.33333333 L19.12,10.6666667 L10.6666667,10.6666667 C7.73333333,10.6666667 5.33333333,13.0666667 5.33333333,16 L5.33333333,48 C5.33333333,50.9333333 7.73333333,53.3333333 10.6666667,53.3333333 L53.3333333,53.3333333 C56.2666667,53.3333333 58.6666667,50.9333333 58.6666667,48 L58.6666667,16 C58.6666667,13.0666667 56.2666667,10.6666667 53.3333333,10.6666667 L44.88,10.6666667 L40,5.33333333 L24,5.33333333 L24,5.33333333 Z M32,45.3333333 C24.64,45.3333333 18.6666667,39.36 18.6666667,32 C18.6666667,24.64 24.64,18.6666667 32,18.6666667 C39.36,18.6666667 45.3333333,24.64 45.3333333,32 C45.3333333,39.36 39.36,45.3333333 32,45.3333333 L32,45.3333333 Z" id="Shape"></path>
                </g>
                <g id="ic_add" transform="translate(48.000000, 0.000000)">
                    <polygon id="Shape" points="25.3333333 17.3333333 17.3333333 17.3333333 17.3333333 25.3333333 14.6666667 25.3333333 14.6666667 17.3333333 6.66666667 17.3333333 6.66666667 14.6666667 14.6666667 14.6666667 14.6666667 6.66666667 17.3333333 6.66666667 17.3333333 14.6666667 25.3333333 14.6666667"></polygon>
                </g>
            </g>
        </g>
    </g>
</svg>