<?xml version="1.0" encoding="UTF-8" standalone="no"?>
<svg width="24px" height="24px" viewBox="0 0 24 24" version="1.1" xmlns="http://www.w3.org/2000/svg" xmlns:xlink="http://www.w3.org/1999/xlink">
    <!-- Generator: Sketch 39.1 (31720) - http://www.bohemiancoding.com/sketch -->
    <title>ic_crop_din</title>
    <desc>Created with Sketch.</desc>
    <defs></defs>
    <g id="Assets" stroke="none" stroke-width="1" fill="none" fill-rule="evenodd">
        <g id="Artboard" transform="translate(-188.000000, -207.000000)">
            <g id="ic_crop_din" transform="translate(188.000000, 207.000000)">
                <polygon id="Bounds" points="0 0 24 0 24 24 0 24"></polygon>
                <path d="M19,3 L5,3 C3.9,3 3,3.9 3,5 L3,19 C3,20.1 3.9,21 5,21 L19,21 C20.1,21 21,20.1 21,19 L21,5 C21,3.9 20.1,3 19,3 L19,3 Z M19,19 L5,19 L5,5 L19,5 L19,19 L19,19 Z" id="Shape" fill="#424242"></path>
            </g>
        </g>
    </g>
</svg>