<?xml version="1.0" encoding="UTF-8" standalone="no"?>
<svg width="19px" height="16px" viewBox="0 0 19 16" version="1.1" xmlns="http://www.w3.org/2000/svg" xmlns:xlink="http://www.w3.org/1999/xlink">
    <!-- Generator: Sketch 40.1 (33804) - http://www.bohemiancoding.com/sketch -->
    <title>ic_clientShare</title>
    <desc>Created with Sketch.</desc>
    <defs></defs>
    <g id="Assets" stroke="none" stroke-width="1" fill="none" fill-rule="evenodd">
        <g id="Artboard" transform="translate(-1125.000000, -672.000000)" fill="#FFFFFF">
            <g id="ic_clientShare" transform="translate(1123.000000, 668.000000)">
                <circle id="Oval-3" opacity="0" cx="12" cy="12" r="12"></circle>
                <path d="M7.8522583,6.66549547 C9.21516531,5.30608919 11.0959184,4.46561468 13.1729748,4.46561468 C17.3341009,4.46561468 20.7073601,7.83887389 20.7073601,12 C20.7073601,16.1611261 17.3341009,19.5343853 13.1729748,19.5343853 C11.2134565,19.5343853 9.42865309,18.7863423 8.08855078,17.5602425 C5.21623844,17.39745 2.93723786,15.0166795 2.93723786,12.1036199 C2.93723786,9.27091166 5.09224844,6.94153308 7.8522583,6.66549547 Z M7.8522583,6.66549547 C6.48474938,8.02949185 5.63858949,9.91593031 5.63858949,12 C5.63858949,14.2016078 6.58288491,16.1826637 8.08855078,17.5602425 C8.19252971,17.5661357 8.29728615,17.5691222 8.40274015,17.5691222 C11.4212537,17.5691222 13.8682424,15.1221335 13.8682424,12.1036199 C13.8682424,9.08510636 11.4212537,6.63811764 8.40274015,6.63811764 C8.21693486,6.63811764 8.0332951,6.64738939 7.8522583,6.66549547 Z" id="Combined-Shape"></path>
            </g>
        </g>
    </g>
</svg>