<?xml version="1.0" encoding="UTF-8"?>
<svg width="16px" height="16px" viewBox="0 0 16 16" version="1.1" xmlns="http://www.w3.org/2000/svg" xmlns:xlink="http://www.w3.org/1999/xlink">
    <!-- Generator: Sketch 48.2 (47327) - http://www.bohemiancoding.com/sketch -->
    <title>ic_close_16</title>
    <desc>Created with Sketch.</desc>
    <defs></defs>
    <g id="Modal" stroke="none" stroke-width="1" fill="none" fill-rule="evenodd" transform="translate(-808.000000, -233.000000)">
        <g id="Group" transform="translate(440.000000, 217.000000)" fill="#9797A3" fill-rule="nonzero">
            <path d="M376,16 C371.581722,16 368,19.581722 368,24 C368,28.418278 371.581722,32 376,32 C380.418278,32 384,28.418278 384,24 C384,21.8782681 383.157145,19.8434368 381.656854,18.3431458 C380.156563,16.8428547 378.121732,16 376,16 Z M379.233333,26.2933333 C379.296438,26.3559222 379.331933,26.4411208 379.331933,26.53 C379.331933,26.6188792 379.296438,26.7040778 379.233333,26.7666667 L378.76,27.24 C378.697411,27.3031042 378.612213,27.3385994 378.523333,27.3385994 C378.434454,27.3385994 378.349256,27.3031042 378.286667,27.24 L376,24.94 L373.706667,27.2333333 C373.644078,27.2964376 373.558879,27.3319328 373.47,27.3319328 C373.381121,27.3319328 373.295922,27.2964376 373.233333,27.2333333 L372.76,26.76 C372.696896,26.6974111 372.661401,26.6122125 372.661401,26.5233333 C372.661401,26.4344542 372.696896,26.3492555 372.76,26.2866667 L375.06,24 L372.766667,21.7066667 C372.703562,21.6440778 372.668067,21.5588792 372.668067,21.47 C372.668067,21.3811208 372.703562,21.2959222 372.766667,21.2333333 L373.24,20.76 C373.302589,20.6968958 373.387787,20.6614006 373.476667,20.6614006 C373.565546,20.6614006 373.650744,20.6968958 373.713333,20.76 L376,23.06 L378.293333,20.7666667 C378.355922,20.7035624 378.441121,20.6680672 378.53,20.6680672 C378.618879,20.6680672 378.704078,20.7035624 378.766667,20.7666667 L379.24,21.24 C379.303104,21.3025889 379.338599,21.3877875 379.338599,21.4766667 C379.338599,21.5655458 379.303104,21.6507445 379.24,21.7133333 L376.94,24 L379.233333,26.2933333 Z" id="ic_close_16"></path>
        </g>
    </g>
</svg>