<?xml version="1.0" encoding="UTF-8"?>
<svg width="22px" height="22px" viewBox="0 0 22 22" version="1.1" xmlns="http://www.w3.org/2000/svg" xmlns:xlink="http://www.w3.org/1999/xlink">
    <!-- Generator: Sketch 48.2 (47327) - http://www.bohemiancoding.com/sketch -->
    <title>ic_facebook</title>
    <desc>Created with Sketch.</desc>
    <defs></defs>
    <g id="Landing-V1_c" stroke="none" stroke-width="1" fill="none" fill-rule="evenodd" transform="translate(-629.000000, -2218.000000)">
        <g id="Footer" transform="translate(0.000000, 2169.000000)" fill="#06064F" fill-rule="nonzero">
            <g id="Social-media" transform="translate(564.000000, 40.000000)">
                <g id="facebook" transform="translate(56.000000, 0.000000)">
                    <path d="M29,9 L11,9 C9.8954305,9 9,9.8954305 9,11 L9,29 C9,30.1045695 9.8954305,31 11,31 L18.5,31 C18.7761424,31 19,30.7761424 19,30.5 L19,23.5 C19,23.2238576 18.7761424,23 18.5,23 L17.5,23 C17.2238576,23 17,22.7761424 17,22.5 L17,19.5 C17,19.2238576 17.2238576,19 17.5,19 L18.5,19 C18.7761424,19 19,18.7761424 19,18.5 L19,17.5 C19,15.0147186 21.0147186,13 23.5,13 L26.5,13 C26.7761424,13 27,13.2238576 27,13.5 L27,16.5 C27,16.7761424 26.7761424,17 26.5,17 L23.5,17 C23.2238576,17 23,17.2238576 23,17.5 L23,18.5 C23,18.7761424 23.2238576,19 23.5,19 L26.5,19 C26.6459639,19.0010383 26.7841859,19.0658089 26.8783864,19.1773115 C26.9725868,19.2888141 27.0133585,19.4359135 26.99,19.58 L26.49,22.58 C26.4509788,22.8207796 26.2439148,22.998263 26,23 L23.5,23 C23.2238576,23 23,23.2238576 23,23.5 L23,30.5 C23,30.7761424 23.2238576,31 23.5,31 L29,31 C30.1045695,31 31,30.1045695 31,29 L31,11 C31,9.8954305 30.1045695,9 29,9 Z" id="ic_facebook"></path>
                </g>
            </g>
        </g>
    </g>
</svg>