<?xml version="1.0" encoding="UTF-8" standalone="no"?>
<svg width="16px" height="20px" viewBox="0 0 16 20" version="1.1" xmlns="http://www.w3.org/2000/svg" xmlns:xlink="http://www.w3.org/1999/xlink">
    <!-- Generator: Sketch 40.1 (33804) - http://www.bohemiancoding.com/sketch -->
    <title>Group 13</title>
    <desc>Created with Sketch.</desc>
    <defs></defs>
    <g id="Assets" stroke="none" stroke-width="1" fill="none" fill-rule="evenodd">
        <g id="Artboard-2" transform="translate(-140.000000, -105.000000)" fill="#0D47A1">
            <g id="Group-13" transform="translate(136.000000, 103.000000)">
                <g id="Fill-35-+-Fill-37-+-Fill-39" transform="translate(4.000000, 2.000000)">
                    <path d="M14.001,18.0005 L2,18.0005 L2,2.0005 L10,2.0005 L10,6.0005 L14,6.0005 L14.001,18.0005 Z M11.414,0.0005 L2,0.0005 C0.897,0.0005 0,0.8985 0,2.0005 L0,18.0005 C0,19.1025 0.897,20.0005 2,20.0005 L14,20.0005 C15.103,20.0005 16,19.1025 16,18.0005 L16,4.5865 L11.414,0.0005 Z" id="Fill-35"></path>
                    <polygon id="Fill-37" points="10 9.001 4 9.001 4 11.001 10 11.001"></polygon>
                    <polygon id="Fill-39" points="4 15.001 12 15.001 12 13.001 4 13.001"></polygon>
                </g>
            </g>
        </g>
    </g>
</svg>