<?xml version="1.0" encoding="UTF-8"?>
<svg width="24px" height="13px" viewBox="0 0 24 13" version="1.1" xmlns="http://www.w3.org/2000/svg" xmlns:xlink="http://www.w3.org/1999/xlink">
    <!-- Generator: Sketch 41.2 (35397) - http://www.bohemiancoding.com/sketch -->
    <title>ic_group_add</title>
    <desc>Created with Sketch.</desc>
    <defs></defs>
    <g id="•-Community" stroke="none" stroke-width="1" fill="none" fill-rule="evenodd">
        <g id="CS_Community_1" transform="translate(-1064.000000, -206.000000)" fill="#0D47A1">
            <g id="ic_group_add" transform="translate(1064.000000, 201.000000)">
                <path d="M8,10 L5,10 L5,7 L3,7 L3,10 L0,10 L0,12 L3,12 L3,15 L5,15 L5,12 L8,12 L8,10 L8,10 Z M18,11 C19.66,11 20.99,9.66 20.99,8 C20.99,6.34 19.66,5 18,5 C17.68,5 17.37,5.05 17.09,5.14 C17.66,5.95 17.99,6.93 17.99,8 C17.99,9.07 17.65,10.04 17.09,10.86 C17.37,10.95 17.68,11 18,11 L18,11 Z M13,11 C14.66,11 15.99,9.66 15.99,8 C15.99,6.34 14.66,5 13,5 C11.34,5 10,6.34 10,8 C10,9.66 11.34,11 13,11 L13,11 Z M19.62,13.16 C20.45,13.89 21,14.82 21,16 L21,18 L24,18 L24,16 C24,14.46 21.63,13.51 19.62,13.16 L19.62,13.16 Z M13,13 C11,13 7,14 7,16 L7,18 L19,18 L19,16 C19,14 15,13 13,13 L13,13 Z" id="Shape"></path>
            </g>
        </g>
    </g>
</svg>