<?xml version="1.0" encoding="UTF-8" standalone="no"?>
<svg width="14px" height="14px" viewBox="0 0 14 14" version="1.1" xmlns="http://www.w3.org/2000/svg" xmlns:xlink="http://www.w3.org/1999/xlink">
    <!-- Generator: Sketch 40.1 (33804) - http://www.bohemiancoding.com/sketch -->
    <title>ic_highlight_remove</title>
    <desc>Created with Sketch.</desc>
    <defs></defs>
    <g id="Assets" stroke="none" stroke-width="1" fill="none" fill-rule="evenodd">
        <g id="Artboard-2" transform="translate(-171.000000, -338.000000)" fill="#0D47A1">
            <g id="ic_highlight_remove" transform="translate(170.000000, 337.000000)">
                <path d="M9.72666667,5.33333333 L8,7.06 L6.27333333,5.33333333 L5.33333333,6.27333333 L7.06,8 L5.33333333,9.72666667 L6.27333333,10.6666667 L8,8.94 L9.72666667,10.6666667 L10.6666667,9.72666667 L8.94,8 L10.6666667,6.27333333 L9.72666667,5.33333333 L9.72666667,5.33333333 Z M8,1.33333333 C4.31333333,1.33333333 1.33333333,4.31333333 1.33333333,8 C1.33333333,11.6866667 4.31333333,14.6666667 8,14.6666667 C11.6866667,14.6666667 14.6666667,11.6866667 14.6666667,8 C14.6666667,4.31333333 11.6866667,1.33333333 8,1.33333333 L8,1.33333333 Z M8,13.3333333 C5.06,13.3333333 2.66666667,10.94 2.66666667,8 C2.66666667,5.06 5.06,2.66666667 8,2.66666667 C10.94,2.66666667 13.3333333,5.06 13.3333333,8 C13.3333333,10.94 10.94,13.3333333 8,13.3333333 L8,13.3333333 Z" id="Shape"></path>
            </g>
        </g>
    </g>
</svg>