<?xml version="1.0" encoding="utf-8"?>
<!-- Generator: Adobe Illustrator 19.0.0, SVG Export Plug-In . SVG Version: 6.00 Build 0)  -->
<svg version="1.1" id="Layer_1" xmlns="http://www.w3.org/2000/svg" xmlns:xlink="http://www.w3.org/1999/xlink" x="0px" y="0px"
	 width="20px" height="20px" viewBox="2 -2 20 20" style="enable-background:new 2 -2 20 20;" xml:space="preserve">
<style type="text/css">
	.st0{fill:#616161;}
</style>
<title>ic_highlight_removegray</title>
<desc>Created with Sketch.</desc>
<g id="Assets">
	<g id="Artboard-2" transform="translate(-176.000000, -229.000000)">
		<g id="ic_highlight_removegray" transform="translate(174.000000, 227.000000)">
			<path id="Shape" class="st0" d="M16.6,6L14,8.6L11.4,6L10,7.4l2.6,2.6L10,12.6l1.4,1.4l2.6-2.6l2.6,2.6l1.4-1.4L15.4,10L18,7.4
				L16.6,6L16.6,6z M14,0C8.5,0,4,4.5,4,10s4.5,10,10,10s10-4.5,10-10S19.5,0,14,0L14,0z M14,18c-4.4,0-8-3.6-8-8s3.6-8,8-8
				s8,3.6,8,8S18.4,18,14,18L14,18z"/>
		</g>
	</g>
</g>
</svg>
