<?xml version="1.0" encoding="UTF-8"?>
<svg width="20px" height="24px" viewBox="0 0 20 24" version="1.1" xmlns="http://www.w3.org/2000/svg" xmlns:xlink="http://www.w3.org/1999/xlink">
    <!-- Generator: Sketch 41 (35326) - http://www.bohemiancoding.com/sketch -->
    <title>ic_IMAGEsmall</title>
    <desc>Created with Sketch.</desc>
    <defs></defs>
    <g id="Assets" stroke="none" stroke-width="1" fill="none" fill-rule="evenodd">
        <g id="Artboard-2" transform="translate(-860.000000, -158.000000)">
            <g id="ic_IMAGEsmall" transform="translate(861.000000, 159.000000)">
                <rect id="Rectangle-14" stroke="#0D47A1" stroke-width="1.5" x="0" y="0" width="18" height="21.8086957" rx="2"></rect>
                <g id="ic_image" transform="translate(2.250000, 4.400000)" fill="#0D47A1">
                    <path d="M11.8125,10.45 L11.8125,2.75 C11.8125,2.145 11.30625,1.65 10.6875,1.65 L2.8125,1.65 C2.19375,1.65 1.6875,2.145 1.6875,2.75 L1.6875,10.45 C1.6875,11.055 2.19375,11.55 2.8125,11.55 L10.6875,11.55 C11.30625,11.55 11.8125,11.055 11.8125,10.45 L11.8125,10.45 Z M4.78125,7.425 L6.1875,9.0805 L8.15625,6.6 L10.6875,9.9 L2.8125,9.9 L4.78125,7.425 L4.78125,7.425 Z" id="Shape"></path>
                </g>
            </g>
        </g>
    </g>
</svg>