<?xml version="1.0" encoding="UTF-8"?>
<svg width="22px" height="22px" viewBox="0 0 22 22" version="1.1" xmlns="http://www.w3.org/2000/svg" xmlns:xlink="http://www.w3.org/1999/xlink">
    <!-- Generator: Sketch 48.2 (47327) - http://www.bohemiancoding.com/sketch -->
    <title>ic_insta</title>
    <desc>Created with Sketch.</desc>
    <defs></defs>
    <g id="Landing-V1_c" stroke="none" stroke-width="1" fill="none" fill-rule="evenodd" transform="translate(-685.000000, -2219.000000)">
        <g id="Footer" transform="translate(0.000000, 2169.000000)" fill="#06064F" fill-rule="nonzero">
            <g id="Social-media" transform="translate(564.000000, 40.000000)">
                <g id="insta" transform="translate(112.000000, 1.000000)">
                    <g id="ic_insta" transform="translate(9.000000, 9.000000)">
                        <path d="M16,22 L6,22 C2.6862915,22 4.4408921e-16,19.3137085 0,16 L0,6 C4.4408921e-16,2.6862915 2.6862915,4.4408921e-16 6,0 L16,0 C19.3137085,2.22044605e-16 22,2.6862915 22,6 L22,16 C22,19.3137085 19.3137085,22 16,22 Z M6,2 C3.790861,2 2,3.790861 2,6 L2,16 C2,18.209139 3.790861,20 6,20 L16,20 C18.209139,20 20,18.209139 20,16 L20,6 C20,3.790861 18.209139,2 16,2 L6,2 Z" id="Shape"></path>
                        <path d="M11,17 C7.6862915,17 5,14.3137085 5,11 C5,7.6862915 7.6862915,5 11,5 C14.3137085,5 17,7.6862915 17,11 C17,12.5912989 16.367859,14.1174224 15.2426407,15.2426407 C14.1174224,16.367859 12.5912989,17 11,17 Z M11,7 C8.790861,7 7,8.790861 7,11 C7,13.209139 8.790861,15 11,15 C13.209139,15 15,13.209139 15,11 C15,9.93913404 14.5785726,8.92171839 13.8284271,8.17157288 C13.0782816,7.42142736 12.060866,7 11,7 Z" id="Shape"></path>
                        <circle id="Oval" cx="17" cy="4" r="1"></circle>
                    </g>
                </g>
            </g>
        </g>
    </g>
</svg>