<?xml version="1.0" encoding="UTF-8"?>
<svg width="34px" height="42px" viewBox="0 0 34 42" version="1.1" xmlns="http://www.w3.org/2000/svg" xmlns:xlink="http://www.w3.org/1999/xlink">
    <!-- Generator: Sketch 40.3 (33839) - http://www.bohemiancoding.com/sketch -->
    <title>ic_IMAGE</title>
    <desc>Created with Sketch.</desc>
    <defs></defs>
    <g id="Assets" stroke="none" stroke-width="1" fill="none" fill-rule="evenodd">
        <g id="Artboard-2" transform="translate(-767.000000, -129.000000)">
            <g id="ic_IMAGE" transform="translate(768.000000, 130.000000)">
                <rect id="Rectangle-14" stroke="#0D47A1" stroke-width="2" x="0" y="0" width="32" height="39.6521739" rx="2"></rect>
                <g id="ic_image" transform="translate(4.000000, 8.000000)" fill="#0D47A1">
                    <path d="M21,19 L21,5 C21,3.9 20.1,3 19,3 L5,3 C3.9,3 3,3.9 3,5 L3,19 C3,20.1 3.9,21 5,21 L19,21 C20.1,21 21,20.1 21,19 L21,19 Z M8.5,13.5 L11,16.51 L14.5,12 L19,18 L5,18 L8.5,13.5 L8.5,13.5 Z" id="Shape"></path>
                </g>
            </g>
        </g>
    </g>
</svg>