<?xml version="1.0" encoding="UTF-8"?>
<svg width="14px" height="14px" viewBox="0 0 14 14" version="1.1" xmlns="http://www.w3.org/2000/svg" xmlns:xlink="http://www.w3.org/1999/xlink">
    <!-- Generator: Sketch 40.3 (33839) - http://www.bohemiancoding.com/sketch -->
    <title>ic_linkedin</title>
    <desc>Created with Sketch.</desc>
    <defs></defs>
    <g id="Prototype" stroke="none" stroke-width="1" fill="none" fill-rule="evenodd">
        <g id="CS_Prototype_5" transform="translate(-571.000000, -284.000000)" fill="#000000">
            <g id="Group-5">
                <g id="Group-3" transform="translate(320.000000, 64.000000)">
                    <g id="ic_linkedin" transform="translate(251.000000, 220.000000)">
                        <g id="Capa_1">
                            <path d="M0.984921166,0 C0.440921128,0 0,0.427470662 0,0.955076009 L0,12.374676 C0,12.9023123 0.441076087,13.3301549 0.984921166,13.3301549 L12.3456986,13.3301549 C12.8895747,13.3301549 13.3299999,12.9020334 13.3299999,12.374676 L13.3299999,0.955076009 C13.3299999,0.427625622 12.8895747,0 12.3456986,0 L0.984921166,0 Z M2.02720826,11.1582457 L2.02720826,5.13984427 L4.04127597,5.13984427 L4.04127597,11.1582457 L2.02720826,11.1582457 Z M3.02090012,4.31763034 C2.34549461,4.31763034 1.90767267,3.85572773 1.90767267,3.2774507 C1.90767267,2.68752073 2.35835623,2.23813883 3.04715022,2.23813883 C3.73600619,2.23813883 4.15972684,2.68739676 4.17311532,3.2774507 C4.17311532,3.8558517 3.73616115,4.31763034 3.03444356,4.31763034 L3.02090012,4.31763034 Z M9.28798015,11.1582457 L9.28798015,7.93819187 C9.28798015,7.1290875 8.99625382,6.57699859 8.26813116,6.57699859 C7.71111455,6.57699859 7.38046244,6.94945871 7.2352656,7.30905721 C7.18146374,7.43748745 7.16813724,7.61711625 7.16813724,7.79649711 L7.16813724,11.1581217 L5.15509226,11.1581217 C5.15509226,11.1581217 5.18143534,5.70420596 5.15509226,5.13975129 L7.16844716,5.13975129 L7.16844716,5.99298806 C7.43572092,5.58299681 7.9133364,4.9981495 8.98252442,4.9981495 C10.3077362,4.9981495 11.301397,5.85783258 11.301397,7.70727156 L11.301397,11.1582457 L9.28798015,11.1582457 Z M7.19743058,5.99308104 L7.19743058,6.05448104 L7.15543058,6.05448104 C7.16653058,6.03628104 7.18203058,6.01438104 7.19743058,5.99308104 Z" id="LinkedIn__x28_alt_x29_"></path>
                        </g>
                    </g>
                </g>
            </g>
        </g>
    </g>
</svg>