<?xml version="1.0" encoding="UTF-8"?>
<svg width="8px" height="14px" viewBox="0 0 8 14" version="1.1" xmlns="http://www.w3.org/2000/svg" xmlns:xlink="http://www.w3.org/1999/xlink">
    <!-- Generator: Sketch 42 (36781) - http://www.bohemiancoding.com/sketch -->
    <title>ic_pin</title>
    <desc>Created with Sketch.</desc>
    <defs></defs>
    <g id="•-Updated-Feed-/-Comments" stroke="none" stroke-width="1" fill="none" fill-rule="evenodd">
        <g id="CS_postOptions_pin_1.2" transform="translate(-735.000000, -329.000000)" fill="#0D47A1">
            <g id="Group-9" transform="translate(320.000000, 298.000000)">
                <g id="Group-7" transform="translate(411.000000, 30.000000)">
                    <g id="ic_pin">
                        <path d="M5.33333333,7.58978814 L5.33333333,2.88888889 L4.66666667,2.88888889 L4.66666667,1.55555556 L11.3333333,1.55555556 L11.3333333,2.88888889 L10.6666667,2.88888889 L10.6666667,7.55994331 L11.9956123,8.88888889 L12,8.88888889 L12,10.2222222 L4,10.2222222 L4,8.88888889 L4.03423258,8.88888889 L5.33333333,7.58978814 Z M8.44444444,14.4444444 L8.66666667,14.4444444 L8.66666667,14.1111111 L8.66666667,10.2222222 L7.33333333,10.2222222 L7.33333333,14.1111111 L7.33333333,14.4444444 L7.55555556,14.4444444 L7.55555556,14.6666667 L7.77777778,14.6666667 L7.77777778,14.8888889 L8.22222222,14.8888889 L8.22222222,14.6666667 L8.44444444,14.6666667 L8.44444444,14.4444444 Z" id="Combined-Shape"></path>
                    </g>
                </g>
            </g>
        </g>
    </g>
</svg>