<?xml version="1.0" encoding="UTF-8"?>
<svg width="8px" height="14px" viewBox="0 0 8 14" version="1.1" xmlns="http://www.w3.org/2000/svg" xmlns:xlink="http://www.w3.org/1999/xlink">
    <!-- Generator: Sketch 42 (36781) - http://www.bohemiancoding.com/sketch -->
    <title>ic_pin</title>
    <desc>Created with Sketch.</desc>
    <defs></defs>
    <g id="•-Updated-Feed-/-Comments" stroke="none" stroke-width="1" fill="none" fill-rule="evenodd">
        <g id="CS_postOptions_pin_1.3" transform="translate(-824.000000, -404.000000)" fill="#424242">
            <g id="Group-7" transform="translate(804.000000, 322.000000)">
                <g id="Group-9">
                    <g id="ic_pin" transform="translate(16.000000, 81.000000)">
                        <g id="Group-11" transform="translate(4.000000, 1.333333)">
                            <path d="M1.33333333,6.25645481 L1.33333333,1.55555556 L0.666666667,1.55555556 L0.666666667,0.222222222 L7.33333333,0.222222222 L7.33333333,1.55555556 L6.66666667,1.55555556 L6.66666667,6.22660997 L7.99561225,7.55555556 L8,7.55555556 L8,8.88888889 L0,8.88888889 L0,7.55555556 L0.0342325834,7.55555556 L1.33333333,6.25645481 Z M4.44444444,13.1111111 L4.66666667,13.1111111 L4.66666667,12.7777778 L4.66666667,8.88888889 L3.33333333,8.88888889 L3.33333333,12.7777778 L3.33333333,13.1111111 L3.55555556,13.1111111 L3.55555556,13.3333333 L3.77777778,13.3333333 L3.77777778,13.5555556 L4.22222222,13.5555556 L4.22222222,13.3333333 L4.44444444,13.3333333 L4.44444444,13.1111111 Z" id="Combined-Shape"></path>
                        </g>
                    </g>
                </g>
            </g>
        </g>
    </g>
</svg>