<?xml version="1.0" encoding="UTF-8"?>
<svg width="30px" height="30px" viewBox="0 0 18 18" version="1.1" xmlns="http://www.w3.org/2000/svg" xmlns:xlink="http://www.w3.org/1999/xlink">
    <!-- Generator: Sketch 41.2 (35397) - http://www.bohemiancoding.com/sketch -->
    <title>ic_poll</title>
    <desc>Created with Sketch.</desc>
    <defs></defs>
    <g id="•-Analytics" stroke="none" stroke-width="1" fill="none" fill-rule="evenodd">
        <g id="CS_Analytics_2" transform="translate(-1034.000000, -23.000000)" fill="#FFFFFF">
            <g id="Group-18">
                <g id="Group-11-Copy-2" transform="translate(1023.000000, 16.000000)">
                    <g id="ic_poll" transform="translate(8.000000, 4.000000)">
                        <path d="M19,3 L5,3 C3.9,3 3,3.9 3,5 L3,19 C3,20.1 3.9,21 5,21 L19,21 C20.1,21 21,20.1 21,19 L21,5 C21,3.9 20.1,3 19,3 L19,3 Z M9,17 L7,17 L7,10 L9,10 L9,17 L9,17 Z M13,17 L11,17 L11,7 L13,7 L13,17 L13,17 Z M17,17 L15,17 L15,13 L17,13 L17,17 L17,17 Z" id="Shape"></path>
                    </g>
                </g>
            </g>
        </g>
    </g>
</svg>
