<?xml version="1.0" encoding="UTF-8"?>
<svg width="20px" height="24px" viewBox="0 0 20 24" version="1.1" xmlns="http://www.w3.org/2000/svg" xmlns:xlink="http://www.w3.org/1999/xlink">
    <!-- Generator: Sketch 41 (35326) - http://www.bohemiancoding.com/sketch -->
    <title>ic_PDFsmall</title>
    <desc>Created with Sketch.</desc>
    <defs></defs>
    <g id="Assets" stroke="none" stroke-width="1" fill="none" fill-rule="evenodd">
        <g id="Artboard-2" transform="translate(-827.000000, -129.000000)">
            <g id="ic_PDFsmall" transform="translate(828.000000, 130.000000)">
                <rect id="Rectangle-14" stroke="#0D47A1" stroke-width="1.5" x="0" y="0" width="18" height="21.8086957" rx="2"></rect>
                <g id="noun_590293_cc" transform="translate(2.250000, 3.850000)" fill="#0D47A1">
                    <g id="Group">
                        <g id="Shape">
                            <path d="M5.98578568,4.08562073e-14 C5.14358333,4.08562073e-14 4.45096884,0.67722381 4.45096884,1.5007098 C4.45096884,2.52441749 5.03268806,3.79531309 5.64524819,4.98986008 C5.16643353,6.45543181 4.62308688,8.0260019 3.92817185,9.35129794 C2.5058577,9.89697493 1.23743672,10.302561 0.47483396,10.9035946 C0.462942572,10.9154847 0.451734024,10.9280098 0.441259842,10.9411124 C0.162585036,11.2197642 0,11.5991511 0,12.0056784 C0,12.8291629 0.692614724,13.5063882 1.53481684,13.5063882 C1.94551034,13.5063882 2.34191486,13.3565348 2.62837384,13.0702444 C2.63828775,13.0628131 2.6478883,13.0549904 2.65715165,13.0467958 C3.21850401,12.3913875 3.88040559,11.2024587 4.47015405,10.115722 C5.82934686,9.59293187 7.2539132,9.06097422 8.62854842,8.74163458 C9.63205925,9.53239774 11.0838136,10.0547557 12.2785347,10.0547557 C13.1207363,10.0547557 13.8133516,9.37753034 13.8133516,8.55404586 C13.8133516,7.73056137 13.1207363,7.05333606 12.2785347,7.05333606 C11.3204357,7.05333606 9.92812619,7.38774582 8.86356725,7.7380349 C8.0006768,6.94597468 7.20789157,5.9567491 6.63808283,4.90544516 C7.04520497,3.6791427 7.52060252,2.45211614 7.52060252,1.5007098 C7.52060252,0.67722381 6.82798818,4.08562073e-14 5.98578568,4.08562073e-14 L5.98578568,4.08562073e-14 Z M5.98578568,0.90042588 C6.33030172,0.90042588 6.59971241,1.16384997 6.59971241,1.5007098 C6.59971241,1.95113734 6.35303159,2.78044158 6.06732282,3.67204929 C5.68555003,2.80468105 5.37185894,1.97251345 5.37185894,1.5007098 C5.37185894,1.16384997 5.64126979,0.90042588 5.98578568,0.90042588 L5.98578568,0.90042588 Z M6.24958232,6.03566722 C6.71120335,6.7536293 7.25185333,7.42170779 7.84195479,8.01472827 C6.93176681,8.25808337 6.04284633,8.56990086 5.16561793,8.89639528 C5.58930749,7.96136303 5.92849281,6.99110162 6.24958232,6.03566722 L6.24958232,6.03566722 Z M12.2785347,7.95376194 C12.6230514,7.95376194 12.8924615,8.21718153 12.8924615,8.55404586 C12.8924615,8.89091019 12.6230514,9.15432978 12.2785347,9.15432978 C11.5868942,9.15432978 10.6038763,8.84905539 9.81803148,8.42273375 C10.7200535,8.17334579 11.7043122,7.95376194 12.2785347,7.95376194 L12.2785347,7.95376194 Z M3.11759671,10.6409704 C2.68598841,11.3942667 2.25696827,12.0973793 1.95689147,12.4512016 C1.85438489,12.5470369 1.71802516,12.6059623 1.53481684,12.6059623 C1.19030065,12.6059623 0.920890104,12.3425277 0.920890104,12.0056784 C0.920890104,11.8471584 0.989794939,11.6897115 1.08396439,11.5882935 C1.44401186,11.3158546 2.22731239,10.9893752 3.11759671,10.6409704 L3.11759671,10.6409704 Z"></path>
                        </g>
                    </g>
                </g>
            </g>
        </g>
    </g>
</svg>