<?xml version="1.0" encoding="UTF-8"?>
<svg width="10px" height="10px" viewBox="0 0 10 10" version="1.1" xmlns="http://www.w3.org/2000/svg" xmlns:xlink="http://www.w3.org/1999/xlink">
    <!-- Generator: Sketch 40.1 (33804) - http://www.bohemiancoding.com/sketch -->
    <title>ic_settings</title>
    <desc>Created with Sketch.</desc>
    <defs></defs>
    <g id="Assets" stroke="none" stroke-width="1" fill="none" fill-rule="evenodd">
        <g id="Artboard-2" transform="translate(-508.000000, -136.000000)" fill="#424242">
            <g id="ic_settings" transform="translate(507.000000, 135.000000)">
                <path d="M9.715,6.49 C9.735,6.33 9.75,6.17 9.75,6 C9.75,5.83 9.735,5.67 9.715,5.51 L10.77,4.685 C10.865,4.61 10.89,4.475 10.83,4.365 L9.83,2.635 C9.77,2.525 9.635,2.485 9.525,2.525 L8.28,3.025 C8.02,2.825 7.74,2.66 7.435,2.535 L7.245,1.21 C7.23,1.09 7.125,1 7,1 L5,1 C4.875,1 4.77,1.09 4.755,1.21 L4.565,2.535 C4.26,2.66 3.98,2.83 3.72,3.025 L2.475,2.525 C2.36,2.48 2.23,2.525 2.17,2.635 L1.17,4.365 C1.105,4.475 1.135,4.61 1.23,4.685 L2.285,5.51 C2.265,5.67 2.25,5.835 2.25,6 C2.25,6.165 2.265,6.33 2.285,6.49 L1.23,7.315 C1.135,7.39 1.11,7.525 1.17,7.635 L2.17,9.365 C2.23,9.475 2.365,9.515 2.475,9.475 L3.72,8.975 C3.98,9.175 4.26,9.34 4.565,9.465 L4.755,10.79 C4.77,10.91 4.875,11 5,11 L7,11 C7.125,11 7.23,10.91 7.245,10.79 L7.435,9.465 C7.74,9.34 8.02,9.17 8.28,8.975 L9.525,9.475 C9.64,9.52 9.77,9.475 9.83,9.365 L10.83,7.635 C10.89,7.525 10.865,7.39 10.77,7.315 L9.715,6.49 L9.715,6.49 Z M6,7.75 C5.035,7.75 4.25,6.965 4.25,6 C4.25,5.035 5.035,4.25 6,4.25 C6.965,4.25 7.75,5.035 7.75,6 C7.75,6.965 6.965,7.75 6,7.75 L6,7.75 Z" id="Shape"></path>
            </g>
        </g>
    </g>
</svg>