<?xml version="1.0" encoding="UTF-8"?>
<svg width="24px" height="20px" viewBox="0 0 24 20" version="1.1" xmlns="http://www.w3.org/2000/svg" xmlns:xlink="http://www.w3.org/1999/xlink">
    <!-- Generator: Sketch 48.2 (47327) - http://www.bohemiancoding.com/sketch -->
    <title>ic_twitter</title>
    <desc>Created with Sketch.</desc>
    <defs></defs>
    <g id="Landing-V1_c" stroke="none" stroke-width="1" fill="none" fill-rule="evenodd" transform="translate(-572.000000, -2219.000000)">
        <g id="Footer" transform="translate(0.000000, 2169.000000)" fill="#06064F" fill-rule="nonzero">
            <g id="Social-media" transform="translate(564.000000, 40.000000)">
                <g id="twitter">
                    <path d="M31.8834295,12.4300067 C31.7289587,12.2648613 31.4828355,12.2238615 31.2831268,12.3300067 C31.0409934,12.440818 30.7899874,12.5311346 30.5327483,12.6000067 C30.9142592,12.1247987 31.2027685,11.5819964 31.3831772,11.0000067 C31.4324846,10.7983244 31.3519633,10.5871702 31.1808573,10.4694554 C31.0097513,10.3517405 30.7836656,10.35196 30.6127887,10.4700067 C29.8155536,10.910726 28.9647766,11.2468319 28.0815121,11.4700067 C27.1327035,10.526506 25.8481148,9.99782449 24.5097108,10.0000067 C23.441898,10.0234742 22.4020509,10.3456642 21.5081971,10.9300067 C19.6072384,12.0000067 19.2770719,14.4700067 19.4171425,16.0000067 C15.8929779,15.7029457 12.6417988,13.9843003 10.4126014,11.2400067 C10.3214049,11.0998043 10.1693549,11.0108443 10.0023945,11.0000067 C9.83557684,11.0112587 9.68541177,11.1050645 9.60219266,11.2500067 C8.5715158,13.0339101 8.65712365,15.250813 9.82230367,16.9500067 C9.67222798,16.8500067 9.51214725,16.7300067 9.35206652,16.6000067 C9.20282259,16.4521219 8.97701439,16.4132366 8.78686089,16.5026755 C8.59670739,16.5921144 8.48275638,16.7908057 8.50163763,17.0000067 C8.5319843,18.8608967 9.46469313,20.5911312 11.0028991,21.6400067 L10.6127023,21.5300067 C10.4271592,21.4722926 10.2249642,21.5271943 10.0941432,21.6708104 C9.96332225,21.8144266 9.92754786,22.0207692 10.0023945,22.2000067 C10.7876311,23.9726941 12.3257098,25.3008653 14.1945087,25.8200067 C12.4908442,26.8036788 10.5171383,27.2171421 8.5616679,27.0000067 C8.32526791,26.9708064 8.10105589,27.112257 8.02573094,27.3381178 C7.95040599,27.5639787 8.04486246,27.8115985 8.25151148,27.9300067 C10.6040702,29.3015235 13.2819645,30.0164198 16.0054219,30.0000067 C19.851881,29.9686163 23.4980685,28.2812829 26.0104677,25.3700067 C28.5132385,22.6889329 29.8296331,19.1130292 29.6623094,15.4500067 C30.5539085,14.7691005 31.3220882,13.940426 31.9334547,13.0000067 C32.0379479,12.818305 32.0179769,12.5907506 31.8834295,12.4300067 Z" id="ic_twitter"></path>
                </g>
            </g>
        </g>
    </g>
</svg>