<?xml version="1.0" encoding="UTF-8" standalone="no"?>
<svg width="16px" height="14px" viewBox="0 0 16 14" version="1.1" xmlns="http://www.w3.org/2000/svg" xmlns:xlink="http://www.w3.org/1999/xlink">
    <!-- Generator: Sketch 40.1 (33804) - http://www.bohemiancoding.com/sketch -->
    <title>ic_thumb_up</title>
    <desc>Created with Sketch.</desc>
    <defs></defs>
    <g id="Assets" stroke="none" stroke-width="1" fill="none" fill-rule="evenodd">
        <g id="Artboard-2" transform="translate(-382.000000, -114.000000)" fill="#0D47A1">
            <g id="ic_thumb_up" transform="translate(382.000000, 114.000000)">
                <path d="M0.666666667,14 L3.33333333,14 L3.33333333,6 L0.666666667,6 L0.666666667,14 L0.666666667,14 Z M15.3333333,6.66666667 C15.3333333,5.93333333 14.7333333,5.33333333 14,5.33333333 L9.79333333,5.33333333 L10.4266667,2.28666667 L10.4466667,2.07333333 C10.4466667,1.8 10.3333333,1.54666667 10.1533333,1.36666667 L9.44666667,0.666666667 L5.06,5.06 C4.81333333,5.3 4.66666667,5.63333333 4.66666667,6 L4.66666667,12.6666667 C4.66666667,13.4 5.26666667,14 6,14 L12,14 C12.5533333,14 13.0266667,13.6666667 13.2266667,13.1866667 L15.24,8.48666667 C15.3,8.33333333 15.3333333,8.17333333 15.3333333,8 L15.3333333,6.72666667 L15.3266667,6.72 L15.3333333,6.66666667 L15.3333333,6.66666667 Z" id="Shape"></path>
            </g>
        </g>
    </g>
</svg>