<?xml version="1.0" encoding="UTF-8"?>
<svg width="16px" height="13px" viewBox="0 0 16 13" version="1.1" xmlns="http://www.w3.org/2000/svg" xmlns:xlink="http://www.w3.org/1999/xlink">
    <!-- Generator: Sketch 43.2 (39069) - http://www.bohemiancoding.com/sketch -->
    <title>ic_visibility_off</title>
    <desc>Created with Sketch.</desc>
    <defs></defs>
    <g id="•-Settings" stroke="none" stroke-width="1" fill="none" fill-rule="evenodd">
        <g id="CS_Settings_PendingInvites_1" transform="translate(-954.000000, -454.000000)" fill="#BDBDBD">
            <g id="ic_visibility_off" transform="translate(954.000000, 452.000000)">
                <path d="M8,4.66666667 C9.84,4.66666667 11.3333333,6.16 11.3333333,8 C11.3333333,8.43333333 11.2466667,8.84 11.0933333,9.22 L13.04,11.1666667 C14.0466667,10.3266667 14.84,9.24 15.3266667,8 C14.1733333,5.07333333 11.3266667,3 7.99333333,3 C7.06,3 6.16666667,3.16666667 5.34,3.46666667 L6.78,4.90666667 C7.16,4.75333333 7.56666667,4.66666667 8,4.66666667 L8,4.66666667 Z M1.33333333,2.84666667 L2.85333333,4.36666667 L3.16,4.67333333 C2.05333333,5.53333333 1.18666667,6.68 0.666666667,8 C1.82,10.9266667 4.66666667,13 8,13 C9.03333333,13 10.02,12.8 10.92,12.44 L11.2,12.72 L13.1533333,14.6666667 L14,13.82 L2.18,2 L1.33333333,2.84666667 L1.33333333,2.84666667 Z M5.02,6.53333333 L6.05333333,7.56666667 C6.02,7.70666667 6,7.85333333 6,8 C6,9.10666667 6.89333333,10 8,10 C8.14666667,10 8.29333333,9.98 8.43333333,9.94666667 L9.46666667,10.98 C9.02,11.2 8.52666667,11.3333333 8,11.3333333 C6.16,11.3333333 4.66666667,9.84 4.66666667,8 C4.66666667,7.47333333 4.8,6.98 5.02,6.53333333 L5.02,6.53333333 Z M7.89333333,6.01333333 L9.99333333,8.11333333 L10.0066667,8.00666667 C10.0066667,6.9 9.11333333,6.00666667 8.00666667,6.00666667 L7.89333333,6.01333333 L7.89333333,6.01333333 Z" id="Shape"></path>
            </g>
        </g>
    </g>
</svg>