<?xml version="1.0" encoding="UTF-8" standalone="no"?>
<svg width="22px" height="20px" viewBox="0 0 22 20" version="1.1" xmlns="http://www.w3.org/2000/svg" xmlns:xlink="http://www.w3.org/1999/xlink">
    <!-- Generator: Sketch 40.1 (33804) - http://www.bohemiancoding.com/sketch -->
    <title>ic_videocam</title>
    <desc>Created with Sketch.</desc>
    <defs></defs>
    <g id="Assets" stroke="none" stroke-width="1" fill="none" fill-rule="evenodd">
        <g id="Artboard-2" transform="translate(-119.000000, -222.000000)">
            <g id="ic_videocam" transform="translate(118.000000, 220.000000)">
                <polygon id="Bounds" points="0 0 24 0 24 24 0 24"></polygon>
                <g id="Group" transform="translate(1.000000, 2.000000)" fill="#0D47A1">
                    <polygon id="Fill-495" points="9 13.0005 15 10.0005 9 7.0005"></polygon>
                    <path d="M2,18.0005 L2,2.0005 L20,2.0005 L20.002,18.0005 L2,18.0005 Z M20,0.0005 L2,0.0005 C0.897,0.0005 0,0.8965 0,2.0005 L0,18.0005 C0,19.1035 0.897,20.0005 2,20.0005 L20,20.0005 C21.103,20.0005 22,19.1035 22,18.0005 L22,2.0005 C22,0.8965 21.103,0.0005 20,0.0005 L20,0.0005 Z" id="Fill-496"></path>
                    <polygon id="Fill-497" points="4 5 6 5 6 3 4 3"></polygon>
                    <polygon id="Fill-498" points="10 3 8 3 8 5 10 5"></polygon>
                    <polygon id="Fill-499" points="14 3 12 3 12 5 14 5"></polygon>
                    <polygon id="Fill-500" points="16 5 18 5 18 3 16 3"></polygon>
                    <polygon id="Fill-501" points="4 17 6 17 6 15 4 15"></polygon>
                    <polygon id="Fill-502" points="8 17 10 17 10 15 8 15"></polygon>
                    <polygon id="Fill-503" points="12 17 14 17 14 15 12 15"></polygon>
                    <polygon id="Fill-504" points="16 17 18 17 18 15 16 15"></polygon>
                </g>
            </g>
        </g>
    </g>
</svg>