<?xml version="1.0" encoding="UTF-8" standalone="no"?>
<svg width="30px" height="30px" viewBox="0 0 30 30" version="1.1" xmlns="http://www.w3.org/2000/svg" xmlns:xlink="http://www.w3.org/1999/xlink">
    <!-- Generator: Sketch 41.1 (35376) - http://www.bohemiancoding.com/sketch -->
    <title>linkedinEMAIL</title>
    <desc>Created with Sketch.</desc>
    <defs></defs>
    <g id="•-Emails" stroke="none" stroke-width="1" fill="none" fill-rule="evenodd">
        <g id="Email_Invite" transform="translate(-648.000000, -711.000000)">
            <g id="linkedinEMAIL" transform="translate(648.000000, 711.000000)">
                <path d="M29.8024675,14.8422078 C29.8024675,23.0115584 23.1798701,29.6341558 15.0105195,29.6341558 C6.84116883,29.6341558 0.218571429,23.0115584 0.218571429,14.8422078 C0.218571429,6.67285714 6.84116883,0.0502597403 15.0105195,0.0502597403 C23.1798701,0.0502597403 29.8024675,6.67285714 29.8024675,14.8422078" id="Linkedin-Circle" fill="#9E9E9E"></path>
                <path d="M8.44558442,12.6062338 L11.2468831,12.6062338 L11.2468831,21.4823377 L8.44558442,21.4823377 L8.44558442,12.6062338 Z M18.9007792,12.5209091 C17.295974,12.5209091 16.2903896,13.3901299 16.1045455,13.9994805 L16.1045455,12.6062338 L12.9576623,12.6062338 C12.9981818,13.3461039 12.9576623,21.4823377 12.9576623,21.4823377 L16.1045455,21.4823377 L16.1045455,16.6792208 C16.1045455,16.4123377 16.0920779,16.1454545 16.1731169,15.9537662 C16.3893506,15.42 16.8541558,14.865974 17.6898701,14.865974 C18.7827273,14.865974 19.2794805,15.6868831 19.2794805,16.8892208 L19.2794805,21.4823377 L22.455974,21.4823377 L22.455974,16.5471429 C22.455974,13.7976623 20.8916883,12.5209091 18.9007792,12.5209091 Z M9.79441558,8.41636364 C8.76,8.41636364 8.08324675,9.08064935 8.08324675,9.95727273 C8.08324675,10.8175325 8.74090909,11.4958442 9.75467532,11.4958442 L9.77493506,11.4958442 C10.8280519,11.4958442 11.4837662,10.8148052 11.4837662,9.95493506 C11.4635065,9.07909091 10.8280519,8.41636364 9.79441558,8.41636364 Z" id="Linkedin" fill="#FFFFFF"></path>
            </g>
        </g>
    </g>
</svg>