<?xml version="1.0" encoding="UTF-8"?>
<svg width="160px" height="62px" viewBox="0 0 160 62" version="1.1" xmlns="http://www.w3.org/2000/svg" xmlns:xlink="http://www.w3.org/1999/xlink">
    <!-- Generator: Sketch 48.2 (47327) - http://www.bohemiancoding.com/sketch -->
    <title>logo/b</title>
    <desc>Created with Sketch.</desc>
    <defs>
        <linearGradient x1="50%" y1="100%" x2="50%" y2="-4.96723543%" id="linearGradient-1">
            <stop stop-color="#06064F" offset="0%"></stop>
            <stop stop-color="#1CBFE0" offset="100%"></stop>
        </linearGradient>
    </defs>
    <g id="Landing-V1_c" stroke="none" stroke-width="1" fill="none" fill-rule="evenodd" transform="translate(-120.000000, -40.000000)">
        <g id="logo/b" transform="translate(120.000000, 40.000000)">
            <g id="logo_b">
                <path d="M90.0522625,29.5832006 C90.3620794,30.0271219 90.9747733,31.4864097 91.1366217,32.6906498 C91.2351808,33.4239837 91.2707283,34.4046169 90.7345394,35.2563372 C90.4280862,35.7431291 89.7424456,36.3899941 88.503178,36.6859417 C87.6302583,36.8944023 86.4203876,37.0692234 85.5665474,37.0692234 L74.1968866,37.0692234 L73.3008961,39.9251172 L81.3186478,39.9251172 C82.227031,39.9251172 83.5461075,39.9413647 83.8559244,39.3494696 C84.4755582,39.7933909 84.4755582,40.9771811 84.4755582,41.4211024 C84.4755582,43.1592652 84.2588103,44.7721461 82.9386804,45.9816837 C82.2484084,46.5883762 81.4466022,46.933747 79.5446362,46.933747 L71.1191655,46.933747 L70.0970795,50.1796996 L79.9161067,50.1796996 C82.4617483,50.1796996 83.5461075,49.8556075 83.8559244,49.1157386 C84.1657413,49.2637124 84.4880748,50.1308683 84.502946,50.1737807 C84.9425762,51.4170563 85.1755585,53.1302967 84.6937932,54.3842264 C84.3554731,55.2634866 83.7662014,56.0373894 83.0471164,56.6686455 C82.179629,57.4301186 80.5406976,57.6204128 79.426596,57.6204128 L64.3425403,57.6204128 C60.7189217,57.6204128 59.2014385,55.8900075 60.4075557,52.1267385 L66.151871,33.911759 C67.0630425,30.8830318 69.1270427,29.6276223 72.070923,29.6276223 L77.3861418,29.6276223 L83.391199,29.5832006 C86.3344596,29.6276223 87.1090019,28.9913055 87.1090019,27.5115678 C87.5590775,27.4255823 88.3489916,27.8355457 88.8133559,28.1914649 C89.2777202,28.5473842 89.897354,29.287253 90.0522625,29.5832006 Z M95.329196,31.4080755 C96.2432641,28.4768706 97.3752276,27.5 99.5059288,27.5 L100.37569,27.5 C102.636278,27.5 104.599461,28.3923765 103.677503,31.4080755 L97.4274253,51.6685802 C96.6383891,54.1743497 96.9855651,55.1512204 98.5090119,55.6193474 C98.5487672,55.6608533 97.6950907,57.912844 93.7377706,57.912844 C88.8682032,57.912844 88.0834157,55.0246274 89.192922,51.3715166 L95.329196,31.4080755 Z M100.011307,52.7104323 C100.211494,50.5041996 102.622048,49.1889285 102.779185,49.4012313 C104.296121,51.14022 107.016643,52.7104323 109.528367,52.7104323 C110.894317,52.7104323 111.59728,52.2431883 111.663086,51.5224837 C111.720283,50.8858711 111.002252,50.5462457 109.43058,49.9102253 C106.498185,48.7216844 103.437559,47.4922819 103.787811,43.6314487 C104.181113,39.304852 107.67594,36.25 113.800266,36.25 C117.545097,36.25 120.528538,37.3535605 122.137419,39.050207 C122.739827,39.6865235 123.107298,40.4925046 123.019044,41.4687426 C122.787183,44.0131202 120.075579,45.2440032 119.915675,45.0746346 C118.582936,43.2497773 116.345816,41.6804533 113.878681,41.6804533 C112.469372,41.6804533 111.71444,42.2320855 111.652016,42.9101519 C111.594205,43.5473567 112.356517,43.886686 114.43896,44.734417 C117.799406,46.0502804 120.753326,47.4922819 120.42214,51.14022 C120.039908,55.3406786 116.477429,58.1823394 110.13262,58.1823394 C105.638085,58.1823394 102.618358,56.9946869 101.130328,55.4250668 C100.407069,54.6611317 99.9184393,53.7284202 100.011307,52.7104323 Z M129.165769,30.5338264 C129.401463,27.9297595 131.515417,26.25 134.173445,26.25 C136.919061,26.25 138.404698,27.6360214 138.229523,29.5678914 C137.997174,32.1300377 135.880179,33.8517179 133.222151,33.8517179 C130.476839,33.8517179 128.99029,32.4656964 129.165769,30.5338264 Z M122.943732,51.0720376 L126.441137,39.8994383 C127.358978,37.0013402 128.491225,36.0362846 130.627076,36.0362846 L131.498386,36.0362846 C133.764401,36.0362846 135.73268,36.9177919 134.80754,39.8994383 L131.196697,51.3657756 C130.405067,53.8434941 130.753287,54.8094291 132.27998,55.2723157 C132.319516,55.3130638 131.46402,57.5401376 127.49857,57.5401376 C122.618321,57.5401376 121.832165,54.6842533 122.943732,51.0720376 Z M151.063584,36.25 C156.995112,36.25 159.898772,38.8948561 159.544719,42.8619913 C159.155048,47.2129181 156.083037,49.8577741 146.53061,49.8577741 C145.44014,49.8577741 144.306135,49.8577741 143.049141,49.7726195 C143.127684,51.8196065 144.558813,52.8867194 147.219537,52.8867194 C148.767263,52.8867194 150.488818,52.4954844 151.925731,51.9416813 C153.007069,51.5245426 154.230272,51.0061711 155.164874,50.3442871 C156.851116,51.9226258 156.274829,54.627626 154.701226,56.0433967 C153.183944,57.4082532 150.427323,58.4747706 146.588757,58.4747706 C138.911927,58.4747706 135.820738,54.5076354 136.297476,49.1750481 C136.98823,41.453962 143.516746,36.25 151.063584,36.25 Z M146.245663,45.2501925 C151.130863,45.2501925 152.650277,44.3545798 152.764743,43.0754735 C152.84085,42.2215449 152.044155,41.3694029 150.212091,41.3694029 C147.726414,41.3694029 145.614883,43.0323007 144.326228,45.2501925 C145.019416,45.2933653 145.678509,45.2501925 146.245663,45.2501925 Z" id="Combined-Shape" fill="#06064F"></path>
                <g id="logo/symbol" fill="url(#linearGradient-1)">
                    <path d="M57.9676653,18.5670198 C60.7490564,20.67397 61.9103041,24.2758971 60.8775472,27.5914706 L52.203935,55.4156634 C51.1228732,58.8844695 47.8864507,61.25 44.2230137,61.25 L42.4415322,61.25 C42.148805,61.25 41.9121114,61.0153624 41.9121114,60.7261356 L41.9092131,41.7722031 C41.9092131,40.2168908 42.379702,27.6910718 30.6242427,27.6910718 C18.8697494,27.6910718 19.3412044,40.2168908 19.3412044,41.7722031 L19.3383061,60.7223047 C19.3383061,61.0144047 19.0996803,61.25 18.805021,61.25 L17.0254716,61.25 C13.3630007,61.25 10.1265782,58.8844695 9.04551649,55.4156634 L0.372870319,27.5914706 C-0.660852685,24.2758971 0.501361122,20.67397 3.28178617,18.5670198 L5.33280854,17.0145806 L5.33280854,15.3041201 L5.33280854,14.1721132 L5.33280854,10.2282855 C5.33280854,9.58853882 5.62167133,8.98135408 6.12210919,8.57528731 L11.1535385,4.49546556 C12.2104479,3.63831991 13.7948457,4.38341412 13.7948457,5.73665077 L13.7948457,10.6056211 L25.5541695,1.70088343 C28.5481018,-0.566961145 32.7023157,-0.566961145 35.695282,1.70088343 L57.9676653,18.5670198 Z M28.8560434,50.2932319 L28.8560434,48.0739476 C28.8560434,47.1307518 29.6330779,46.3673945 30.5919715,46.3673945 C31.5508652,46.3673945 32.3269271,47.1307518 32.3269271,48.0739476 L32.3269271,50.2932319 C33.3840441,50.8930126 34.0434051,51.9950021 34.0628552,53.1955201 C34.0628552,55.0809552 32.5087863,56.609583 30.5919715,56.609583 C28.6741843,56.609583 27.1210878,55.0809552 27.1210878,53.1955201 C27.140538,51.9950021 27.7989264,50.8930126 28.8560434,50.2932319 Z M35.8386562,40.7661977 L25.5067233,40.7661977 L25.5067233,38.8855544 C25.5067233,35.7704673 27.8195402,33.2445905 30.6726898,33.2445905 C33.5258393,33.2445905 35.8386562,35.7704673 35.8386562,38.8855544 L35.8386562,40.7661977 Z" id="symbol"></path>
                </g>
            </g>
        </g>
    </g>
</svg>