<?xml version="1.0" encoding="UTF-8"?>
<svg width="60px" height="81px" viewBox="0 0 60 81" version="1.1" xmlns="http://www.w3.org/2000/svg" xmlns:xlink="http://www.w3.org/1999/xlink">
    <!-- Generator: Sketch 48.2 (47327) - http://www.bohemiancoding.com/sketch -->
    <title>logo_a</title>
    <desc>Created with Sketch.</desc>
    <defs>
        <linearGradient x1="50%" y1="100%" x2="50%" y2="-4.96723543%" id="linearGradient-1">
            <stop stop-color="#06064F" offset="0%"></stop>
            <stop stop-color="#1CBFE0" offset="100%"></stop>
        </linearGradient>
    </defs>
    <g id="Landing-V1_c" stroke="none" stroke-width="1" fill="none" fill-rule="evenodd" transform="translate(-120.000000, -40.000000)">
        <g id="logo/a" transform="translate(120.000000, 40.000000)">
            <g id="logo_a">
                <path d="M18.1085697,63.5084842 C18.2952558,63.7759776 18.6644464,64.6552995 18.7619712,65.3809376 C18.8213599,65.8228221 18.8427797,66.4137215 18.5196888,66.926942 C18.3350295,67.2202678 17.9218835,67.6100488 17.175139,67.7883777 C16.6491444,67.9139896 15.9201135,68.0193315 15.4056157,68.0193315 L8.55460751,68.0193315 L8.01471118,69.7402053 L12.8459619,69.7402053 C13.3933257,69.7402053 14.1881606,69.7499955 14.3748468,69.3933378 C14.7482191,69.6608311 14.7482191,70.3741467 14.7482191,70.64164 C14.7482191,71.6890035 14.6176135,72.6608759 13.8221438,73.3897061 C13.4062071,73.7552804 12.9230633,73.9633902 11.7769971,73.9633902 L6.70006734,73.9633902 L6.08418975,75.9193015 L12.0008338,75.9193015 C13.5347591,75.9193015 14.1881606,75.7240135 14.3748468,75.2781913 C14.5615329,75.3673557 14.7557612,75.8898772 14.7647221,75.9157349 C15.0296298,76.6648946 15.1700178,77.6972406 14.8797208,78.4528201 C14.6758595,78.9826353 14.3207825,79.4489653 13.8874839,79.8293409 C13.3647627,80.2881811 12.377193,80.4028466 11.7058696,80.4028466 L2.61668129,80.4028466 C0.433200133,80.4028466 -0.481188606,79.3601575 0.245580557,77.0925273 L3.70692838,66.1167405 C4.25597233,64.2917226 5.49967543,63.5352514 7.27356718,63.5352514 L10.4763547,63.5352514 L14.0948176,63.5084842 C15.868336,63.5352514 16.3350513,63.1518264 16.3350513,62.260182 C16.6062531,62.2083698 17.082231,62.4554011 17.3620427,62.6698671 C17.6418543,62.8843331 18.0152266,63.3301553 18.1085697,63.5084842 Z M21.2882876,64.6080978 C21.839077,62.8418438 22.5211634,62.2532116 23.8050585,62.2532116 L24.3291495,62.2532116 C25.6913108,62.2532116 26.8742644,62.7909302 26.3187206,64.6080978 L22.5526161,76.8164551 C22.0771672,78.3263549 22.2863647,78.9149871 23.204347,79.1970661 C23.2283023,79.2220762 22.7139031,80.5790566 20.3293436,80.5790566 C17.395092,80.5790566 16.9222031,78.8387061 17.5907575,76.6374538 L21.2882876,64.6080978 Z M24.1095836,77.4442432 C24.2302105,76.1148352 25.6827363,75.3222932 25.7774219,75.4502204 C26.691481,76.4980816 28.3307839,77.4442432 29.8442717,77.4442432 C30.6673511,77.4442432 31.0909349,77.1626963 31.130588,76.7284219 C31.1650528,76.3448187 30.7323895,76.1401709 29.7853479,75.7569245 C28.0183769,75.0407463 26.174138,74.2999462 26.3851888,71.9735268 C26.6221808,69.3664526 28.7280559,67.5256926 32.4183867,67.5256926 C34.6749065,67.5256926 36.4726364,68.1906643 37.4420987,69.2130113 C37.8050912,69.5964361 38.0265184,70.0820955 37.9733388,70.6703465 C37.8336265,72.2035103 36.1996972,72.9452025 36.1033439,72.8431462 C35.3002764,71.7435433 33.9522569,70.7979169 32.4656369,70.7979169 C31.6164309,70.7979169 31.1615322,71.1303135 31.1239174,71.5388955 C31.089082,71.9228555 31.5484277,72.1273249 32.803244,72.6381416 C34.8281453,73.4310404 36.6080869,74.2999462 36.4085244,76.4980816 C36.178203,79.0291488 34.031563,80.7414463 30.2083759,80.7414463 C27.5001074,80.7414463 25.6805127,80.0258033 24.7838713,79.0799985 C24.348058,78.6196747 24.0536246,78.0576515 24.1095836,77.4442432 Z M41.6771662,64.0813021 C41.8191886,62.5121714 43.0929921,61.5 44.6946383,61.5 C46.3490618,61.5 47.2442611,62.3351739 47.1387064,63.4992594 C46.9986998,65.04313 45.7230637,66.0805615 44.1214176,66.0805615 C42.4671773,66.0805615 41.5714283,65.2453876 41.6771662,64.0813021 Z M37.9279581,76.4569969 L40.0353873,69.724732 C40.58845,67.9784271 41.2707073,67.3969143 42.5577051,67.3969143 L43.0827299,67.3969143 C44.4481607,67.3969143 45.6341852,67.9280835 45.0767244,69.724732 L42.9009412,76.6339944 C42.4239292,78.1269915 42.6337558,78.7090342 43.5536945,78.9879554 C43.5775176,79.012509 43.0620221,80.3544752 40.6725639,80.3544752 C37.7318756,80.3544752 37.2581621,78.6336071 37.9279581,76.4569969 Z M54.8721166,67.5256926 C58.4462731,67.5256926 60.1959294,69.1194016 59.982588,71.5098754 C59.7477841,74.1316101 57.8966851,75.7253191 52.1406862,75.7253191 C51.483602,75.7253191 50.8002858,75.7253191 50.0428596,75.6740075 C50.0901873,76.907459 50.9525415,77.5504684 52.5558122,77.5504684 C53.4884242,77.5504684 54.5257808,77.3147222 55.3916203,76.9810175 C56.0432013,76.7296625 56.7802656,76.4173078 57.3434282,76.0184769 C58.3595057,76.9695352 58.0122526,78.5994852 57.0640482,79.4525851 C56.1497803,80.2750057 54.4887258,80.9176563 52.1757233,80.9176563 C47.5499019,80.9176563 45.6872462,78.5271826 45.9745142,75.3139294 C46.3907409,70.6614402 50.3246243,67.5256926 54.8721166,67.5256926 Z M51.9689858,72.948932 C54.912657,72.948932 55.828209,72.4092633 55.8971826,71.6385132 C55.9430428,71.1239621 55.4629787,70.6104874 54.3590333,70.6104874 C52.8612408,70.6104874 51.5888969,71.6124986 50.8123929,72.948932 C51.2300871,72.9749466 51.627236,72.948932 51.9689858,72.948932 Z" id="Combined-Shape" fill="#06064F"></path>
                <g id="logo/symbol" transform="translate(1.500000, 0.000000)" fill="url(#linearGradient-1)">
                    <path d="M53.9454191,17.278696 C56.5338158,19.2394496 57.6144871,22.5914471 56.6533909,25.6769604 L48.5816211,51.5704949 C47.5755718,54.7986084 44.5637174,57 41.1544781,57 L39.4966096,57 C39.2241941,57 39.0039241,56.7816433 39.0039241,56.5124853 L39.0012269,38.8737237 C39.0012269,37.426331 39.4390696,25.7696505 28.4992952,25.7696505 C17.5604199,25.7696505 17.9991616,37.426331 17.9991616,38.8737237 L17.9964645,56.5089203 C17.9964645,56.7807521 17.7743964,57 17.5001828,57 L15.8441124,57 C12.4357721,57 9.42391768,54.7986084 8.41786841,51.5704949 L0.346997684,25.6769604 C-0.614997601,22.5914471 0.466572799,19.2394496 3.0540704,17.278696 L4.96277693,15.833977 L4.96277693,14.2422015 L4.96277693,13.1887421 L4.96277693,9.51856774 C4.96277693,8.92321163 5.23159617,8.35815808 5.69730978,7.98026738 L10.3796195,4.1835353 C11.3631923,3.38586506 12.8376524,4.07925885 12.8376524,5.33859745 L12.8376524,9.8697209 L23.781023,1.58286295 C26.5672131,-0.527620984 30.4331755,-0.527620984 33.2184665,1.58286295 L53.9454191,17.278696 Z M26.8537873,46.8034975 L26.8537873,44.7382043 C26.8537873,43.8604547 27.5769052,43.1500651 28.4692633,43.1500651 C29.3616214,43.1500651 30.0838342,43.8604547 30.0838342,44.7382043 L30.0838342,46.8034975 C31.0676003,47.3616608 31.6812096,48.3871856 31.6993102,49.5044024 C31.6993102,51.2590114 30.2530746,52.6815711 28.4692633,52.6815711 C26.684547,52.6815711 25.2392164,51.2590114 25.2392164,49.5044024 C25.257317,48.3871856 25.8700213,47.3616608 26.8537873,46.8034975 Z M33.3518923,37.9375227 L23.736869,37.9375227 L23.736869,36.1873731 C23.736869,33.2884349 25.8892047,30.937823 28.5443807,30.937823 C31.1995566,30.937823 33.3518923,33.2884349 33.3518923,36.1873731 L33.3518923,37.9375227 Z" id="symbol"></path>
                </g>
            </g>
        </g>
    </g>
</svg>