<?xml version="1.0" encoding="UTF-8"?>
<svg width="34px" height="42px" viewBox="0 0 34 42" version="1.1" xmlns="http://www.w3.org/2000/svg" xmlns:xlink="http://www.w3.org/1999/xlink">
    <!-- Generator: Sketch 40.3 (33839) - http://www.bohemiancoding.com/sketch -->
    <title>Group 15</title>
    <desc>Created with Sketch.</desc>
    <defs/>
    <g id="Assets" stroke="none" stroke-width="1" fill="none" fill-rule="evenodd">
        <g id="Artboard-2" transform="translate(-716.000000, -39.000000)">
            <g id="Group-15" transform="translate(717.000000, 40.000000)">
                <rect id="Rectangle-14" stroke="#0D47A1" stroke-width="2" x="0" y="0" width="32" height="39.6521739" rx="2"/>
                <g id="noun_590293_cc" transform="translate(4.000000, 7.000000)" fill="#0D47A1">
                    <g id="Group">
                        <g id="Shape">
                            <path d="M10.6413968,7.46069873e-14 C9.14414814,7.46069873e-14 7.91283349,1.23131602 7.91283349,2.72856327 C7.91283349,4.58984998 8.94700099,6.90056926 10.0359968,9.07247288 C9.18477072,11.7371488 8.21882112,14.5927307 6.98341662,17.0023599 C4.45485813,17.9944999 2.19988749,18.731929 0.844149262,19.8247175 C0.823009017,19.8463358 0.803082709,19.8691088 0.784461941,19.8929316 C0.289040063,20.3995712 0,21.0893657 0,21.8285062 C0,23.3257507 1.23131506,24.5570694 2.72856327,24.5570694 C3.45868506,24.5570694 4.16340419,24.2846088 4.6726646,23.7640807 C4.69028934,23.7505693 4.70735698,23.7363463 4.72382516,23.7214469 C5.7217849,22.5297955 6.89849882,20.3681068 7.94694053,18.3922218 C10.3632833,17.4416943 12.8958457,16.4744986 15.3396416,15.8938811 C17.1236609,17.3316323 19.7045576,18.2813739 21.8285062,18.2813739 C23.3257534,18.2813739 24.5570694,17.0500552 24.5570694,15.5528106 C24.5570694,14.0555661 23.3257534,12.8242474 21.8285062,12.8242474 C20.1252191,12.8242474 17.6500021,13.4322651 15.7574529,14.0691544 C14.2234254,12.6290449 12.8140295,10.8304529 11.8010361,8.91899119 C12.5248088,6.68935036 13.36996,4.45839298 13.36996,2.72856327 C13.36996,1.23131602 12.1386456,7.46069873e-14 10.6413968,7.46069873e-14 L10.6413968,7.46069873e-14 Z M10.6413968,1.63713796 C11.2538697,1.63713796 11.7328221,2.11609086 11.7328221,2.72856327 C11.7328221,3.54752244 11.2942784,5.05534833 10.7863517,6.67645326 C10.1076445,5.09942008 9.54997145,3.58638809 9.54997145,2.72856327 C9.54997145,2.11609086 10.0289241,1.63713796 10.6413968,1.63713796 L10.6413968,1.63713796 Z M11.1103686,10.9739404 C11.9310282,12.279326 12.8921837,13.4940142 13.941253,14.5722332 C12.323141,15.014697 10.7428379,15.5816379 9.18332076,16.1752641 C9.93654665,14.4752055 10.5395428,12.7110939 11.1103686,10.9739404 L11.1103686,10.9739404 Z M21.8285062,14.4613853 C22.4409802,14.4613853 22.9199315,14.9403301 22.9199315,15.5528106 C22.9199315,16.1652912 22.4409802,16.644236 21.8285062,16.644236 C20.5989231,16.644236 18.8513356,16.0891916 17.4542782,15.3140614 C19.0578728,14.8606287 20.8076661,14.4613853 21.8285062,14.4613853 L21.8285062,14.4613853 Z M5.54239415,19.3472189 C4.7750905,20.7168486 4.01238804,21.995235 3.47891817,22.6385484 C3.29668425,22.8127944 3.05426696,22.9199315 2.72856327,22.9199315 C2.11609004,22.9199315 1.63713796,22.4409595 1.63713796,21.8285062 C1.63713796,21.540288 1.75963545,21.2540208 1.92704781,21.0696245 C2.56713219,20.5742811 3.95966646,19.9806822 5.54239415,19.3472189 L5.54239415,19.3472189 Z"/>
                        </g>
                    </g>
                </g>
            </g>
        </g>
    </g>
</svg>