<?xml version="1.0" encoding="UTF-8" standalone="no"?>
<svg width="32px" height="32px" viewBox="0 0 32 32" version="1.1" xmlns="http://www.w3.org/2000/svg" xmlns:xlink="http://www.w3.org/1999/xlink">
    <!-- Generator: Sketch 39.1 (31720) - http://www.bohemiancoding.com/sketch -->
    <title>Profile_icon</title>
    <desc>Created with Sketch.</desc>
    <defs></defs>
    <g id="Assets" stroke="none" stroke-width="1" fill="none" fill-rule="evenodd">
        <g id="Artboard" transform="translate(-71.000000, -203.000000)">
            <g id="Profile_icon" transform="translate(71.000000, 203.000000)">
                <circle id="Oval-2" fill="#EEEEEE" cx="16" cy="16" r="16"></circle>
                <g id="ic_person" transform="translate(8.000000, 7.000000)" fill="#212121">
                    <path d="M8,8 C10.21,8 12,6.21 12,4 C12,1.79 10.21,0 8,0 C5.79,0 4,1.79 4,4 C4,6.21 5.79,8 8,8 L8,8 Z M8,10 C5.33,10 0,11.34 0,14 L0,16 L16,16 L16,14 C16,11.34 10.67,10 8,10 L8,10 Z" id="Shape"></path>
                </g>
            </g>
        </g>
    </g>
</svg>