<?xml version="1.0" encoding="UTF-8" standalone="no"?>
<svg width="30px" height="30px" viewBox="0 0 30 30" version="1.1" xmlns="http://www.w3.org/2000/svg" xmlns:xlink="http://www.w3.org/1999/xlink">
    <!-- Generator: Sketch 41.1 (35376) - http://www.bohemiancoding.com/sketch -->
    <title>twitterEMAIL</title>
    <desc>Created with Sketch.</desc>
    <defs></defs>
    <g id="•-Emails" stroke="none" stroke-width="1" fill="none" fill-rule="evenodd">
        <g id="Email_Invite" transform="translate(-602.000000, -711.000000)">
            <g id="twitterEMAIL" transform="translate(602.000000, 711.000000)">
                <path d="M29.8024675,14.8422078 C29.8024675,23.0115584 23.1798701,29.6341558 15.0105195,29.6341558 C6.84116883,29.6341558 0.218571429,23.0115584 0.218571429,14.8422078 C0.218571429,6.67285714 6.84116883,0.0502597403 15.0105195,0.0502597403 C23.1798701,0.0502597403 29.8024675,6.67285714 29.8024675,14.8422078" id="Twitter-Circle" fill="#9E9E9E"></path>
                <path d="M21.7246753,8.90454545 C21.1457143,9.25597403 20.505974,9.51155844 19.8222078,9.64831169 C19.2775325,9.05220779 18.4990909,8.67974026 17.6372727,8.67974026 C15.9853247,8.67974026 14.6446753,10.0542857 14.6446753,11.7494805 C14.6446753,11.9898701 14.6703896,12.2236364 14.7218182,12.4484416 C12.2337662,12.3202597 10.0281818,11.0996104 8.55077922,9.24 C8.29285714,9.69506494 8.14558442,10.222987 8.14558442,10.7848052 C8.14558442,11.8496104 8.6738961,12.7893506 9.47766234,13.3398701 C8.98753247,13.3250649 8.52506494,13.1855844 8.12064935,12.9568831 L8.12064935,12.9946753 C8.12064935,14.4825974 9.15272727,15.7238961 10.5233766,16.0048052 C10.2724675,16.0768831 10.0075325,16.1127273 9.73441558,16.1127273 C9.54155844,16.1127273 9.35337662,16.0944156 9.17103896,16.0585714 C9.55207792,17.2776623 10.657013,18.1655844 11.9672727,18.188961 C10.942987,19.012987 9.65142857,19.5038961 8.24922078,19.5038961 C8.00766234,19.5038961 7.76883117,19.4898701 7.53506494,19.4618182 C8.85974026,20.3314286 10.4341558,20.8398701 12.1242857,20.8398701 C17.6314286,20.8398701 20.6419481,16.162987 20.6419481,12.105974 C20.6419481,11.9723377 20.6396104,11.8390909 20.6345455,11.7081818 C21.2193506,11.2749351 21.7274026,10.7349351 22.1271429,10.1193506 C21.591039,10.3632468 21.0136364,10.5284416 20.4081818,10.6024675 C21.0264935,10.222987 21.501039,9.62103896 21.7246753,8.90454545" id="Twitter" fill="#FFFFFF"></path>
            </g>
        </g>
    </g>
</svg>